<?xml version="1.0" standalone="no"?>
<!DOCTYPE svg PUBLIC "-//W3C//DTD SVG 20010904//EN"
 "http://www.w3.org/TR/2001/REC-SVG-20010904/DTD/svg10.dtd">
<svg version="1.0" xmlns="http://www.w3.org/2000/svg"
 width="1080.000000pt" height="1080.000000pt" viewBox="0 0 1080.000000 1080.000000"
 preserveAspectRatio="xMidYMid meet">

<g transform="translate(0.000000,1080.000000) scale(0.100000,-0.100000)"
fill="#000000" stroke="none">
<path d="M2260 6894 c-21 -9 -174 -154 -392 -372 l-358 -356 0 -831 0 -831
358 -356 c239 -239 369 -362 394 -373 54 -22 130 -19 181 6 52 27 1437 1407
1463 1459 12 22 18 57 18 95 0 38 -6 73 -18 95 -10 19 -334 351 -721 738 -525
524 -714 707 -746 722 -53 23 -130 25 -179 4z m109 -744 c6 -118 16 -314 21
-434 6 -121 11 -220 13 -221 1 0 24 -6 51 -13 257 -65 290 -426 51 -555 -58
-32 -212 -32 -271 0 -107 57 -172 178 -161 297 l6 61 -50 28 c-120 67 -449
272 -449 280 0 8 225 -105 431 -217 l86 -46 29 41 c36 53 99 96 166 113 l53
13 -3 449 c-3 486 8 569 27 204z"/>
<path d="M2299 5446 c-55 -19 -107 -54 -134 -90 -14 -18 -25 -37 -25 -42 0
-15 190 -116 207 -110 13 5 15 18 9 74 -3 37 -6 93 -6 125 0 31 -3 57 -7 57
-5 -1 -24 -7 -44 -14z"/>
<path d="M2404 5327 c5 -111 4 -136 -9 -155 -27 -38 -77 -29 -180 32 -49 30
-93 52 -97 49 -17 -10 -7 -109 16 -158 79 -170 289 -211 418 -83 144 145 78
381 -123 438 l-32 9 7 -132z"/>
<path d="M7271 5618 c-1 -73 0 -78 20 -78 19 0 20 4 14 42 -4 23 -13 58 -21
78 -12 34 -13 33 -13 -42z"/>
<path d="M8049 5586 c-142 -38 -236 -153 -275 -337 -46 -218 42 -360 224 -361
98 -1 161 23 230 87 93 86 142 210 143 359 0 65 -4 87 -26 133 -33 65 -86 107
-156 122 -61 13 -81 13 -140 -3z m97 -212 c26 -61 -4 -216 -52 -273 -29 -34
-73 -42 -94 -16 -19 23 -24 98 -10 167 21 108 55 158 107 158 30 0 36 -5 49
-36z"/>
<path d="M9477 5569 c-40 -21 -99 -94 -119 -146 -7 -18 -15 -33 -19 -33 -22 0
-17 28 15 90 20 37 36 71 36 74 0 3 -47 6 -105 6 -100 0 -105 -1 -110 -22 -10
-43 -155 -871 -155 -885 0 -11 22 -13 107 -11 l107 3 24 135 c22 128 23 139 9
215 -11 59 -12 82 -3 87 20 13 23 9 30 -39 15 -114 74 -171 164 -159 169 23
294 218 295 461 1 123 -31 192 -105 231 -39 20 -126 17 -171 -7z m32 -185 c42
-54 20 -221 -38 -283 -35 -37 -87 -43 -115 -12 -37 40 -29 156 15 249 35 71
101 93 138 46z"/>
<path d="M7682 5550 c-33 -20 -88 -97 -98 -137 -6 -23 -28 -31 -38 -14 -4 5
12 44 35 85 l41 77 -108 -3 -108 -3 -53 -300 c-29 -165 -53 -308 -53 -317 0
-16 12 -18 104 -18 l104 0 6 28 c3 15 17 92 31 172 30 169 38 192 77 225 23
19 41 25 79 25 27 0 49 1 49 3 1 1 9 46 19 100 l17 97 -35 0 c-20 0 -51 -9
-69 -20z"/>
<path d="M8492 5448 c-63 -341 -66 -367 -54 -425 37 -178 207 -184 309 -12 18
30 36 60 41 68 4 8 14 11 20 7 8 -5 0 -30 -28 -87 l-40 -79 108 0 108 0 53
303 c29 166 55 310 57 320 5 15 -5 17 -104 17 l-109 0 -32 -187 c-42 -241 -46
-258 -80 -295 -20 -23 -32 -29 -48 -24 -44 14 -45 52 -8 264 19 108 37 207 40
220 5 22 4 22 -104 22 l-109 0 -20 -112z"/>
<path d="M7271 5368 c1 -45 2 -49 9 -23 11 44 11 75 0 75 -6 0 -9 -23 -9 -52z"/>
</g>
</svg>
